<?xml version="1.0" ?><svg fill="none" height="24" viewBox="0 0 24 24" width="24" xmlns="http://www.w3.org/2000/svg"><path d="M15 15L18.3787 11.6213C18.7765 11.2235 19.3161 11 19.8787 11H20C21.1046 11 22 11.8954 22 13V13C22 14.1046 21.1046 15 20 15H4C2.89543 15 2 14.1046 2 13V13C2 11.8954 2.89543 11 4 11L8.51472 11C10.106 11 11.6321 11.6321 12.7574 12.7574L15 15Z" stroke="black" stroke-linecap="round" stroke-linejoin="round" stroke-width="2"/><path d="M3 15H21V17C21 18.6569 19.6569 20 18 20H6C4.34315 20 3 18.6569 3 17V15Z" stroke="black" stroke-linecap="round" stroke-linejoin="round" stroke-width="2"/><path d="M12 4C7.37672 4 3.56765 5.75576 3.05796 10.0009C2.99212 10.5493 3.44772 11 4 11H20C20.5523 11 21.0079 10.5493 20.942 10.0009C20.4323 5.75576 16.6233 4 12 4Z" stroke="black" stroke-linecap="round" stroke-linejoin="round" stroke-width="2"/><path d="M7.001 8H7" stroke="black" stroke-linecap="round" stroke-linejoin="round" stroke-width="2"/><path d="M15.001 7H15" stroke="black" stroke-linecap="round" stroke-linejoin="round" stroke-width="2"/><path d="M12.001 8H12" stroke="black" stroke-linecap="round" stroke-linejoin="round" stroke-width="2"/></svg>